<?xml version="1.0" standalone="no"?>
<!DOCTYPE svg PUBLIC "-//W3C//DTD SVG 20010904//EN"
 "http://www.w3.org/TR/2001/REC-SVG-20010904/DTD/svg10.dtd">
<svg version="1.0" xmlns="http://www.w3.org/2000/svg"
 width="700.000000pt" height="700.000000pt" viewBox="0 0 700.000000 700.000000"
 preserveAspectRatio="xMidYMid meet">
<g transform="translate(0.000000,700.000000) scale(0.100000,-0.100000)"
fill="#000000" stroke="none">
<path d="M3128 5865 c-47 -7 -98 -15 -112 -19 -14 -3 -28 -6 -31 -6 -3 0 -44
-14 -92 -31 -255 -90 -439 -251 -600 -525 -66 -111 -77 -133 -196 -394 -141
-310 -192 -415 -464 -960 -277 -555 -342 -681 -496 -960 -72 -132 -313 -471
-524 -737 -211 -267 -252 -319 -301 -374 l-33 -38 840 -560 841 -561 73 72
c58 58 271 259 331 313 109 98 212 191 216 195 3 3 39 34 80 69 41 36 80 70
85 76 54 58 361 297 510 397 148 99 178 115 368 187 256 98 418 191 530 304
66 66 66 66 169 197 319 408 839 682 1337 705 53 3 146 7 206 10 61 3 133 7
160 11 65 8 174 39 202 59 63 44 91 295 44 399 -33 74 -138 172 -246 228 -89
46 -243 100 -320 113 -22 3 -62 10 -90 15 -56 10 -535 6 -605 -5 -302 -45
-587 -149 -887 -322 -121 -70 -164 -83 -253 -78 -80 4 -137 31 -217 100 -113
99 -239 338 -268 511 -19 112 -23 156 -21 229 2 64 8 91 30 136 36 75 111 147
194 189 88 44 94 47 182 67 124 28 508 22 655 -11 11 -3 46 -8 78 -11 32 -4
68 -8 80 -11 28 -5 136 -21 202 -29 28 -3 61 -8 75 -10 14 -3 43 -7 65 -10 22
-3 51 -8 65 -10 14 -3 48 -7 75 -10 28 -3 73 -10 100 -15 28 -5 71 -11 96 -15
25 -3 57 -7 70 -9 26 -5 94 -14 149 -21 29 -4 128 -18 205 -30 11 -1 58 -8
105 -14 47 -7 96 -14 110 -16 14 -3 50 -7 80 -10 30 -4 63 -9 74 -12 41 -12
157 -11 203 1 180 49 313 230 313 426 0 114 -40 209 -123 294 -86 88 -160 115
-447 160 -19 3 -100 16 -180 30 -80 13 -161 27 -180 30 -19 3 -46 8 -60 10
-14 3 -113 19 -220 36 -242 39 -228 37 -270 44 -64 11 -424 65 -470 71 -14 2
-38 5 -55 8 -16 3 -66 11 -110 17 -44 6 -107 15 -140 20 -33 5 -78 12 -100 14
-22 3 -56 7 -75 10 -103 14 -139 19 -175 22 -22 2 -74 9 -115 14 -41 5 -102
12 -135 15 -33 4 -73 8 -90 11 -79 11 -416 11 -497 -1z"/>
</g>
</svg>
