<svg xmlns="http://www.w3.org/2000/svg" viewBox="0 0 50 50">
    <path fill="currentColor" d="M44.5,10.9C44.5,10.9,28,8,24,8c-5,0-7.1,2.6-8.8,6.6C14,17.3,10.1,25.3,8,29c-1.1,2-5.3,7.2-6,8l12,8c0,0,0.7-0.7,0.9-0.9	c3.2-3,7.2-6.7,9.8-8l0.5-0.2c1.8-0.6,3.5-1.4,4.7-2.6c0.2-0.3,0.7-0.9,0.8-1C32.9,29.2,37.1,27,41,27c1.9,0,3-0.2,3.6-0.6	c0,0,0.4-0.836,0.4-1.9c0-2.2-3.5-3.5-6-3.5h-1c-1.9,0-4.7,0.1-8.9,2.6c-0.4,0.3-0.9,0.4-1.3,0.4c-0.4,0-0.8-0.1-1.1-0.3	C25.2,22.9,24,20.3,24,18c0-1.2,1-3,4.7-3c0.9,0,2,0.1,3.3,0.3c0,0,11.8,1.7,12,1.7c0.6,0,1.2-0.2,1.7-0.6c0.6-0.4,1-1.2,1.2-2	C47.2,12.8,46.1,11.2,44.5,10.9z"/>
</svg>
